<svg xmlns="http://www.w3.org/2000/svg" viewBox="0 -0.5 45 38">
<g stroke="#000" fill="none" stroke-linecap="square"><path stroke-width="0.00" d="M0 0h45M0 1h9M23 1h22M0 2h5M24 2h21M0 3h4M9 3h5M26 3h19M0 4h3M5 4h11M28 4h17M0 5h2M3 5h14M30 5h15M0 6h1M2 6h10M13 6h1M31 6h14M0 7h12M13 7h1M33 7h12M0 8h12M35 8h10M0 9h8M9 9h4M37 9h8M0 10h8M10 10h2M38 10h7M0 11h9M30 11h1M34 11h1M39 11h6M0 12h5M6 12h3M33 12h1M39 12h6M0 13h5M32 13h6M40 13h5M0 14h5M33 14h5M41 14h4M0 15h3M4 15h2M34 15h5M41 15h4M0 16h3M35 16h5M41 16h4M1 17h2M35 17h10M36 18h9M37 19h8M22 20h1M38 20h4M43 20h2M33 21h2M39 21h3M44 21h1M33 22h2M40 22h2M44 22h1M32 23h3M41 23h1M32 24h1M31 25h10M28 26h1M30 26h10M23 27h17M21 28h1M23 28h16M19 29h1M21 29h1M23 29h16M19 30h19M18 31h3M22 31h15M17 32h20M18 33h18M16 34h19M13 35h22M13 36h21M11 37h2M14 37h19" />
<path stroke-width="0.30" d="M9 1h1M18 1h1M21 1h1M5 2h1M26 4h1M26 5h1M21 11h1M32 11h1M11 12h1M31 13h1M5 17h1M2 20h1M18 24h1M17 26h1M8 30h1M1 31h1" />
<path stroke-width="0.27" d="M10 1h1M14 1h1M16 1h1M20 1h1M25 4h1M23 5h1M31 10h1M37 10h1M20 12h2M7 14h1M31 15h1M1 21h1M37 24h1M44 24h1M18 25h1M44 25h1M7 29h1M0 30h1M4 32h1M9 33h1" />
<path stroke-width="0.24" d="M11 1h1M25 3h1M24 4h1M17 6h1M43 25h1M44 26h1M42 27h2M44 34h1M43 36h1" />
<path stroke-width="0.26" d="M12 1h1M6 2h1M14 7h1M33 10h2M30 12h1M27 13h1M0 20h1M0 24h2M21 26h1M43 26h1M21 27h1M7 35h1" />
<path stroke-width="0.28" d="M13 1h1M15 1h1M22 5h1M24 5h1M35 10h1M9 12h1M6 16h1M18 27h1M10 28h1M14 29h1M8 31h1" />
<path stroke-width="0.31" d="M17 1h1M27 4h1M25 5h1M19 6h1M28 9h1M24 11h1M9 14h2M31 23h1M17 24h1M16 26h1M16 27h1M0 28h1M7 28h3M0 29h2M8 32h1" />
<path stroke-width="0.29" d="M19 1h1M22 1h1M17 7h1M36 9h1M13 11h1M19 11h1M22 11h1M28 11h1M31 11h1M7 13h1M20 13h1M26 13h1M32 16h1M22 19h1M32 21h1M19 25h1M18 26h1M23 26h1M2 32h1M8 34h1" />
<path stroke-width="0.25" d="M7 2h1M36 10h1M14 28h2M42 28h1M12 31h1M0 32h1M3 33h1M8 35h1" />
<path stroke-width="0.22" d="M8 2h1M12 8h1M16 17h1M34 18h1M20 27h1M11 28h1M22 28h1M8 29h1M41 29h1M44 32h1M0 33h1M44 33h1M9 34h1M43 34h1M5 35h1M43 35h1M43 37h1" />
<path stroke-width="0.14" d="M9 2h2M15 2h1M6 3h1M21 4h2M39 13h1M40 14h1M3 18h2M41 26h1M11 34h1M11 35h1M39 36h1M39 37h1" />
<path stroke-width="0.10" d="M11 2h1M15 3h2M20 3h1M15 6h1M29 11h1M37 12h1M32 14h1M2 18h1M37 20h1M43 21h1M31 24h1M41 25h1M22 27h1M13 32h1M15 32h1M12 35h1M36 35h1M0 36h1M37 36h1M7 37h1M37 37h2" />
<path stroke-width="0.07" d="M12 2h1M7 3h1M18 3h1M17 4h2M12 6h1M12 7h1M24 9h1M9 10h1M12 10h1M24 10h1M38 13h1M36 19h1M42 23h1M40 27h1M20 29h1M17 30h1M15 33h1M35 35h1M35 36h2M3 37h1M8 37h1M34 37h2" />
<path stroke-width="0.11" d="M13 2h1M18 5h1M12 11h1M3 19h1M35 24h1M11 29h1M39 29h1M14 33h1M2 34h1M12 34h1M36 34h1M2 36h1M11 36h1M38 36h1" />
<path stroke-width="0.13" d="M14 2h1M8 10h1M36 11h1M33 20h1M43 23h1M42 24h1M16 31h1M38 31h1M37 34h2M38 35h1M3 36h1M9 36h1" />
<path stroke-width="0.17" d="M16 2h1M21 3h1M33 11h1M35 11h1M5 14h1M5 16h1M4 17h1M16 28h1M16 29h1M15 30h1M13 31h1M12 32h1M11 33h1M39 33h1M42 33h1M40 34h1M40 37h1" />
<path stroke-width="0.18" d="M17 2h1M20 2h2M5 3h1M22 3h1M17 5h1M21 5h1M16 7h1M38 12h1M35 19h1M30 25h1M42 25h1M13 28h1M11 30h1M42 30h1M14 31h1M40 31h1M39 32h1M41 32h1M10 33h1M41 33h1M41 34h1M40 35h2M7 36h1M41 36h1M41 37h1" />
<path stroke-width="0.16" d="M18 2h1M20 4h1M10 11h1M13 12h1M4 16h1M2 19h1M34 20h1M32 22h1M40 23h1M39 24h1M9 29h1M10 30h1M39 30h1M10 31h2M39 31h1M12 33h1M38 33h1M40 33h1M2 35h1M39 35h1M40 36h1" />
<path stroke-width="0.15" d="M19 2h1M15 7h1M9 13h1M40 28h1M10 29h1M12 29h1M9 30h1M12 30h1M10 32h2M14 32h1M38 32h1M13 33h1M0 34h1M39 34h1M10 35h1M4 36h1M8 36h1" />
<path stroke-width="0.23" d="M22 2h1M4 3h1M24 3h1M38 11h1M21 13h1M35 21h1M36 23h1M19 26h1M42 26h1M19 27h1M44 27h1M17 28h1M41 28h1M43 28h1M42 29h1M0 31h1M9 32h1M3 34h1M44 35h1" />
<path stroke-width="0.21" d="M23 2h1M18 6h1M14 8h1M33 16h1M44 23h1M43 24h1M20 26h1M12 28h1M44 28h1M13 29h1M40 29h1M44 29h1M40 30h1M1 32h1M43 33h1M4 35h1M44 36h1M42 37h1" />
<path stroke-width="0.05" d="M8 3h1M17 3h1M2 5h1M5 12h1M0 18h1M19 28h1M36 33h1M14 34h1M1 35h1M1 37h1M4 37h1M33 37h1" />
<path stroke-width="0.03" d="M14 3h1M16 4h1M1 6h1M42 21h1M35 34h1" />
<path stroke-width="0.09" d="M19 3h1M30 10h1M39 14h1M35 18h1M1 19h1M35 22h1M37 32h1M1 36h1M5 36h1M2 37h1M5 37h1M9 37h1" />
<path stroke-width="0.20" d="M23 3h1M19 5h2M29 10h1M32 12h1M6 13h1M33 17h2M0 23h1M36 24h1M18 28h1M41 30h1M9 31h1M41 31h1M10 34h1M3 35h1M6 35h1M9 35h1M42 36h1" />
<path stroke-width="0.12" d="M3 4h1M19 4h1M14 6h1M8 9h1M11 11h1M29 12h1M0 19h1M40 24h1M27 26h1M22 29h1M15 31h1M37 33h1M1 34h1M13 34h1M0 35h1M37 35h1M6 36h1M10 36h1" />
<path stroke-width="0.01" d="M4 4h1M34 12h1M38 14h1M3 15h1M40 16h1M42 22h1M33 24h1M39 28h1M6 37h1" />
<path stroke-width="0.19" d="M23 4h1M28 10h1M37 11h1M5 18h1M41 27h1M43 29h1M43 30h2M42 31h3M40 32h1M42 32h2M1 33h2M42 34h1M42 35h1M44 37h1" />
<path stroke-width="0.34" d="M27 5h2M35 9h1M22 13h1M24 16h1M28 18h1M16 20h1M38 24h1M1 27h1M14 30h1M4 33h1M7 34h1" />
<path stroke-width="0.33" d="M29 5h1M17 8h1M17 16h1M33 19h1M17 23h1M38 23h1M16 24h1M17 25h1M26 26h1M0 27h1M7 32h1M8 33h1" />
<path stroke-width="0.02" d="M16 6h1M36 12h1M39 15h1M3 16h1M42 20h1M41 24h1M29 26h1M40 26h1M18 30h1M21 31h1M37 31h1M17 33h1M15 34h1M12 36h1M10 37h1" />
<path stroke-width="0.41" d="M20 6h1M15 8h1M25 12h1M27 17h1M15 19h1M32 19h1M36 20h1M15 23h1M15 25h1M2 28h2M3 29h1M4 31h1M6 33h1" />
<path stroke-width="0.52" d="M21 6h1M13 8h1M33 8h1M29 9h1M31 16h1M23 17h1M29 17h1M29 18h1M31 20h1M13 24h1M5 27h1M4 28h1" />
<path stroke-width="0.58" d="M22 6h1M18 9h1M33 9h1M19 10h1M16 14h1M13 16h1M22 16h1M27 16h1M18 17h1M17 20h1M29 21h1M3 22h1M25 22h1M28 22h1M27 23h1M29 23h1M7 24h1M11 24h1M3 25h1M11 25h1M10 26h1" />
<path stroke-width="0.46" d="M23 6h1M23 9h1M28 13h1M17 14h1M16 15h1M14 18h1M5 19h1M13 20h2M15 21h1M13 22h2M31 22h1M38 22h1M11 27h1M4 29h1M4 30h1M5 31h1" />
<path stroke-width="0.64" d="M24 6h1M17 10h1M10 13h1M25 15h1M10 23h1M20 23h1" />
<path stroke-width="0.72" d="M25 6h1M11 20h1M20 20h1M26 21h1M21 22h2M22 23h1M25 23h1M25 24h1" />
<path stroke-width="0.75" d="M26 6h1M27 9h1M11 14h1M27 14h1M27 15h1M10 17h1M18 19h1M5 20h1M10 20h1M10 21h1M9 23h1" />
<path stroke-width="0.45" d="M27 6h1M20 7h1M18 13h1M18 15h1M30 15h1M17 17h1M32 17h1M34 19h1M3 20h1M14 21h1M1 22h1M15 22h1M37 22h1M14 23h1M18 23h1M39 23h1M14 25h1M4 26h1M25 26h1M2 27h1M12 27h1" />
<path stroke-width="0.40" d="M28 6h2M19 7h1M16 8h1M23 13h1M31 14h1M15 15h1M23 16h1M15 17h1M33 18h1M4 19h1M1 20h1M15 20h1M20 25h1M1 26h1M13 27h1M6 32h1M5 33h1" />
<path stroke-width="0.37" d="M30 6h1M25 9h1M15 11h1M23 12h1M16 16h1M16 21h1M16 22h1M36 22h1M39 22h1M30 24h1M15 27h1M1 28h1M15 29h1" />
<path stroke-width="0.50" d="M18 7h1M19 9h1M14 14h1M28 14h1M21 15h1M22 17h1M28 17h1M13 19h1M4 20h1M1 23h1M1 25h1M13 25h1M27 25h1M12 26h1M5 29h1" />
<path stroke-width="0.85" d="M21 7h1M19 8h1M26 19h1M27 20h1M5 21h2" />
<path stroke-width="0.93" d="M22 7h1M30 8h1M18 11h1M15 12h1M7 16h1M12 16h1" />
<path stroke-width="1.00" d="M23 7h7M22 8h1M27 8h1M14 11h1M27 11h1M11 13h1M12 14h1M22 14h5M9 15h1M10 16h1M8 17h2M23 18h4M23 19h3M27 19h1M23 20h3M4 21h1M25 21h1" />
<path stroke-width="0.71" d="M30 7h1M16 9h1M18 10h1M16 12h1M18 12h1M16 13h1M20 14h1M26 15h1M13 17h1M19 17h1M7 19h1M19 20h1M20 21h1" />
<path stroke-width="0.43" d="M31 7h1M32 10h1M24 13h1M29 14h1M26 16h1M13 21h1M28 25h1M2 29h1" />
<path stroke-width="0.39" d="M32 7h1M23 10h1M26 12h1M25 13h1M18 14h1M2 22h1M17 22h1M16 23h1M16 25h1M15 26h1M14 27h1" />
<path stroke-width="0.57" d="M18 8h1M34 9h1M12 12h1M24 15h1M14 16h1M12 17h1M17 18h1M30 18h1M6 19h1M12 20h1M12 21h1M28 21h1M26 22h1M6 25h1M8 27h1" />
<path stroke-width="0.95" d="M20 8h1M17 11h1" />
<path stroke-width="0.88" d="M21 8h1M12 15h1M24 21h1" />
<path stroke-width="0.80" d="M23 8h1M17 9h1M10 12h1M30 16h1M4 23h1M5 25h1" />
<path stroke-width="0.67" d="M24 8h1M13 9h2M29 16h1M27 18h1M12 19h1M3 21h1M4 22h1M6 22h1M7 23h1M22 24h1" />
<path stroke-width="0.83" d="M25 8h2M13 14h1" />
<path stroke-width="0.86" d="M28 8h1M22 9h1M8 18h1M6 23h1M6 24h1" />
<path stroke-width="0.91" d="M29 8h1M20 9h1M10 15h1M28 15h2M7 18h1M3 24h1" />
<path stroke-width="0.89" d="M31 8h1M11 15h1" />
<path stroke-width="0.73" d="M32 8h1M31 9h1M8 16h1M9 19h1M7 21h1M5 23h1M8 25h1" />
<path stroke-width="0.36" d="M34 8h1M31 12h1M29 13h1M6 14h1M33 15h1M15 18h1M29 25h1M22 26h1M17 27h1M6 29h1M1 30h2M7 30h1M3 31h1M5 32h1M7 33h1M6 34h1" />
<path stroke-width="0.61" d="M15 9h1M21 9h1M13 10h1M11 18h1M17 19h1M30 21h1M29 22h1M11 23h2M28 24h1M22 25h3" />
<path stroke-width="0.54" d="M26 9h1M30 14h1M6 15h1M14 15h1M31 18h1M27 21h1M36 21h1M27 22h1M12 25h1M11 26h1M9 27h1" />
<path stroke-width="0.59" d="M30 9h1M14 12h1M30 17h1M29 19h1M29 20h1M12 22h1M18 22h1M24 22h1M30 22h1M28 23h1M27 24h1M10 25h1" />
<path stroke-width="0.62" d="M32 9h1M16 11h1M8 15h1M15 16h1M18 16h2M13 18h1M21 18h1M21 19h1M11 21h1M26 23h1M10 24h1M26 25h1" />
<path stroke-width="0.48" d="M14 10h1M9 11h1M19 14h1M32 15h1M34 16h1M32 18h1M2 21h1M31 21h1M38 21h1M2 24h1M2 26h1" />
<path stroke-width="0.97" d="M15 10h1M20 10h1M27 10h1M9 16h1M25 17h1" />
<path stroke-width="0.77" d="M16 10h1M19 19h1" />
<path stroke-width="0.53" d="M21 10h1M25 10h1M12 13h1M17 15h1M21 25h1M7 27h1" />
<path stroke-width="0.65" d="M22 10h1M17 13h1M11 17h1M9 18h1M30 19h1M8 20h1M8 21h1M7 22h1M23 22h1M9 24h1M23 24h1M9 25h1M25 25h1M8 26h1" />
<path stroke-width="0.63" d="M26 10h1M14 13h1M8 14h1M20 16h2M21 17h1M18 18h1M10 19h1M9 20h1M22 21h2M8 22h1M11 22h1M21 24h1M7 25h1M9 26h1" />
<path stroke-width="0.69" d="M20 11h1M13 15h1M20 15h1M7 17h1M31 17h1M19 18h2M21 20h1M21 21h1M5 22h1M8 23h1M21 23h1M23 23h1M24 24h1M26 24h1" />
<path stroke-width="0.76" d="M23 11h1M17 12h1M19 15h1M28 16h1M8 19h1M20 19h1M7 20h1M9 22h1M3 23h1M4 25h1" />
<path stroke-width="0.68" d="M25 11h1M14 17h1M20 17h1M18 20h1M9 21h1M18 21h2M10 22h1M19 22h2M2 23h1M19 23h1M24 23h1M7 26h1" />
<path stroke-width="0.38" d="M26 11h1M22 12h1M28 12h1M25 16h1M16 19h1M32 20h1M37 23h1M15 24h1M20 28h1M7 31h1" />
<path stroke-width="0.47" d="M19 12h1M30 13h1M15 14h1M22 18h1M28 20h1M35 20h1M17 21h1M0 22h1M14 24h1M19 24h1M0 26h1M13 26h1M24 26h1M6 27h1M5 28h1M5 30h1" />
<path stroke-width="0.44" d="M24 12h1M14 19h1M28 19h1M2 25h1M14 26h1M6 28h1M3 30h1M6 31h1" />
<path stroke-width="0.79" d="M27 12h1M15 13h1M24 17h1M12 18h1M11 19h1M5 24h1M8 24h1" />
<path stroke-width="0.04" d="M35 12h1M5 13h1M8 13h1M0 17h1M3 17h1M1 18h1M26 20h1M35 23h1M34 24h1M17 29h2M16 30h1M17 31h1M16 32h1M16 33h1M0 37h1M13 37h1" />
<path stroke-width="0.55" d="M13 13h1M22 15h2M6 17h1M26 17h1M10 18h1M31 19h1M30 20h1M37 21h1M30 23h1M12 24h1M20 24h1M3 26h1M5 26h1" />
<path stroke-width="0.32" d="M19 13h1M21 14h1M16 18h1M0 21h1M0 25h1M6 30h1M13 30h1M2 31h1M3 32h1M4 34h2" />
<path stroke-width="0.51" d="M7 15h1M6 18h1M13 23h1M29 24h1M6 26h1M3 27h2M10 27h1" />
<path stroke-width="0.08" d="M40 15h1M43 22h1M38 30h1" />
<path stroke-width="0.82" d="M11 16h1M6 20h1M4 24h1" />
<path stroke-width="0.06" d="M34 36h1M36 37h1" />
</g></svg>